<svg width="24" height="24" viewBox="0 0 24 24" fill="none" xmlns="http://www.w3.org/2000/svg">
<g clip-path="url(#clip0_483_45499)">
<path fill-rule="evenodd" clip-rule="evenodd" d="M5.3628 11.2849C5.3628 8.56625 7.56671 6.36234 10.2854 6.36234C13.004 6.36234 15.2079 8.56625 15.2079 11.2849C15.2079 14.0036 13.004 16.2075 10.2854 16.2075C7.56671 16.2075 5.3628 14.0036 5.3628 11.2849ZM10.2854 3.96234C6.24122 3.96234 2.9628 7.24077 2.9628 11.2849C2.9628 15.3291 6.24122 18.6075 10.2854 18.6075C12.0038 18.6075 13.584 18.0155 14.8332 17.0244L17.7765 19.9678C18.2268 20.418 18.9568 20.418 19.407 19.9678C19.8572 19.5176 19.8572 18.7876 19.407 18.3373L16.394 15.3243C17.1611 14.1665 17.6079 12.7779 17.6079 11.2849C17.6079 7.24077 14.3295 3.96234 10.2854 3.96234Z" fill="#22274A"/>
</g>
<defs>
<clipPath id="clip0_483_45499">
<rect width="24" height="24" fill="white"/>
</clipPath>
</defs>
</svg>
